<svg viewBox="0 0 158 160" xmlns="http://www.w3.org/2000/svg" xmlns:xlink="http://www.w3.org/1999/xlink"><mask id="a" fill="#fff"><path d="m0 .44449751h157.947916v158.75915849h-157.947916z" fill="#fff" fill-rule="evenodd"/></mask><g fill="none" fill-rule="evenodd"><path d="m155.135103 43.5929791c-5.462513-16.007005-20.22273-26.174408-36.165645-26.5233831-5.674661-.1248159-11.187987-2.1893731-15.591027-5.7810149-3.9203052-3.19936319-8.4300539-5.84597015-13.4784318-7.76151244-22.1168241-8.39068657-47.4476382.85715423-59.0243538 21.52947264-3.842814 6.8610547-5.8385367 14.2022687-6.1777206 21.4810746-.3696723 7.9538309-4.4106613 15.287403-10.6620623 20.1985274-16.38880803 12.872597-20.89220501 39.1336117-.0330291 59.0608557 2.459401 2.349851 5.8461588 3.836179 9.3243819 4.778667 6.4381427 1.746149 11.8422191 5.94786 15.4614512 11.564577 5.9185689 9.185433 15.7930131 15.687323 27.4891417 16.871801 11.6415036 1.179383 22.567799-3.162428 30.194991-10.904836 5.3901028-5.47407 12.9563178-8.407244 20.6051058-7.79208 11.133363.896637 22.552554-3.135681 30.748864-11.974686 10.350826-11.16211 12.706058-26.905473 7.326119-40.1474231-2.437805-6.0051741-2.353962-12.6637214-.18039-18.7707861 2.867184-8.056995 3.140309-17.103602.162605-25.8292537" fill="#c7bff3" mask="url(#a)" opacity=".343029" transform="translate(0 .033114)"/><g opacity=".55027" transform="translate(133.676661 44.692538)"><path d="m12.6081547 7.47453023c-.6084985 3.46427857-3.90379094 5.77592037-7.35787737 5.16585077-3.45535678-.6113433-5.76231558-3.91387067-5.15254673-7.37687565.60849849-3.4642786 3.90379095-5.7759204 7.35787739-5.16585074 3.45535681.61134328 5.76104521 3.91259701 5.15254671 7.37687562" fill="#fff07d" opacity=".541062"/><path d="m12.6081547 7.47453023c-.6084985 3.46427857-3.90379094 5.77592037-7.35787737 5.16585077-3.45535678-.6113433-5.76231558-3.91387067-5.15254673-7.37687565.60849849-3.4642786 3.90379095-5.7759204 7.35787739-5.16585074 3.45535681.61134328 5.76104521 3.91259701 5.15254671 7.37687562z" stroke="#6d6da8" stroke-linecap="round" stroke-linejoin="round" stroke-width="2"/></g><g opacity=".598377" transform="translate(3.601066 14.591235)"><path d="m19.0552764 0c-10.52359399 0-19.0552764 8.55371144-19.0552764 19.1044776 0 10.5507662 8.53168241 19.1044776 19.0552764 19.1044776 10.523594 0 19.0552764-8.5537114 19.0552764-19.1044776 0-10.55076616-8.5316824-19.1044776-19.0552764-19.1044776" fill="#95bfff"/><path d="m19.0552764 0c-1.5091779 0-2.9751638.18212935-4.3839839.51327363.4649487.36935324 1.0734472.72342289 1.2728924.79856717.5691176.21397015 1.0353367 1.4799602.6250131 1.80218905-.5233849.41393035-.3086955.83677612-.2134191 1.3118408.0597065.30439801.090195.63299502.4141347.69922388.2858291.05986069.5373588-.08278607.6707457-.35789055.5792804-1.18957214 1.6260502-1.40099502 2.5724623-1.60859701.6161206-.13245772.9375196-.62917413 1.2716221-1.00999005.4636784-.52855722.9832523-1.03036816 1.3516543-1.80600995-1.1598312-.22161194-2.3565025-.34260697-3.5811216-.34260697" fill="#ecf4ff"/><path d="m36.7576281 12.0609114-.6148502.2610946v-.0012737c.0050814.0356617.0101628.0700498.0076221.1133533-.0647879 1.3054726-2.2866332 1.3169353-3.3003739.8418706-.4954372-.2330746-1.079799-.2203383-1.4685266.2496319-.732993.8915422-1.2017528-.2916617-2.6029508-.4406767-.2578814-.0280199-.3404542-.2674626-.3175879-.4801592.1346573-1.2366965-2.369206-.1057114-4.3674693-.1668457-.9006794-.0280199-1.5091779.2636418-1.7861146.7514428-.9083015 1.6047761-3.3791357 2.1537114-2.5610292 3.5534328.2693146.4597811.0584362.8749851-.188012 1.2940099-.6910714 1.1742886.1956341 1.013811 1.1572904 2.670806.1892824.328597.5513327.5896916.9527638.5935124.93879.0089155 1.8979056-.0089154 2.8150995-.1579303.754589-.1235423 2.3463397.2216119 2.4797267.2267065 2.7058492.1044378 1.8763095 6.2917413 2.163409 6.9056318.8981387 1.9231841 1.5282332 4.6271045 2.3310955 4.6538508.2616925.0089154.531007-.01401.801592-.0585871 3.6052583-3.4757413 5.8512402-8.3575721 5.8512402-13.7666866 0-2.4797612-.4751116-4.8474428-1.3338694-7.0215323-.0012703-.0038209-.003811-.0089154-.0050814-.0127363-.0050814-.01401-.0139739-.0089155-.0139739-.0089155" fill="#fff07d"/><g fill="#afefa6"><path d="m20.715118 20.7077254c.1905528.328597.5513327.5896915.9527638.5935124.9400603.0089154 1.8991759-.0089154 2.8150995-.1579303.7558593-.1235423 2.3463397.2216119 2.4797266.2267064 1.5663438.0598607 1.9474493 2.1575324 2.0465367 4.0335921 0 0 2.7642855.7285174 4.4424201.4177512 1.6781347-.3107662 3.770404-.9412139 3.770404-.9412139.5767397-1.8212935.8879759-3.7623085.8879759-5.7759204 0-1.2749055-.1270352-2.5192438-.3645909-3.7253731 0 0 .1321166 2.241592-3.5366593 2.4084378-3.6687759.1655721-5.6479839.4967164-8.0908704 0-2.4416161-.4979901-6.3111075 1.7244975-6.3111075 1.7244975.2528.2674627.5754693.6228059.9083015 1.1959403"/><path d="m22.9618621 11.1405851c.6491498.3082189 1.5079075.1018905 1.9106091-.5196418.4281085-.65974131 2.7363376-2.5434428 2.9395939-.4865274.0088925.096796.3938091-.54511441 1.0975839-.20123381.4179458.20378111.7304523-.11462687.3633206-.41138309-.1969045-.15920398-.5132221-.31713432-.3302914-.54893532.2197708-.28274627.4662191.00127363.6999638.08151244 1.1369648.39355224 2.3806392 1.92827858 2.9027538 1.78181098.3163176-.0891543.5729286.0382089.7063156.24199.9692783 1.4786866 2.7884221.4139304 2.8913206 1.2443383l.6275537-.266189c-1.4304161-3.60947267-3.9253869-6.6789254-7.0987256-8.81735327-.7279116.42284578-1.4659859.94758209-2.1329206 1.39207961-.3150472.21014925-.415405.52855721-.2883699.8520597.1448201.3719005 1.4507418.43048756-2.3183919 1.74742288-.2820181.09806966-.5259256.11335324-.317588.44195025.5373588.85715423-.1232241.96668657-.9362492.97305473-.3734834.00254726-.8917869.60370149-.9591156.97942288-.0914653.50053732-.6300944 1.10169152.2426372 1.51562192"/><path d="m5.5757009 5.60079602c-.32521005.32732338-.63644623.66865672-.93751959 1.0201791-.05081407.05858707-.10162814.1159005-.15117186.17321393-.2896402.34515423-.56784724.70049752-.83335076 1.06602986-.04065125.05476616-.07876181.11080597-.11814271.16684577-.55387337.78073632-1.05312161 1.60222885-1.48758191 2.46320402-.01651457.0331144-.0342995.0675024-.05081407.1006169-.2185005.439403-.42048643.8864477-.60468744 1.3449552-.00889246.0203781-.01651457.0420298-.02540703.0611343-.57038794 1.4315622-.97563015 2.9446368-1.18904925 4.5201194-.0711397.5272836-.12576482 1.0609354-.15371256 1.6009553.95403417.1719402 1.95507136.4101094 2.41239799 1.5067064.20325628.4865274.7952402.9730547 1.29702914.7501692.65423116-.294209.62882412.0904278.74188543.4113831.61230955 1.7359602-1.38849447.9972537-.52973668 3.8565572.39634975 1.3207562 1.0480402 2.4861293 2.47337487 3.0630845.33537287.1362787.57801005.4088359.61739096.7756418.11433166 1.0316418.41794573 2.0339901.24771859 3.1076617-.1448201.9055523-.14354975 1.816199.17657889 2.6720796.38110553.2929354.77491458.5718607 1.17761608.8367762.00762212.0063681.01651458.0114626.02413669.0165572.0342995.0216517.06859899.0433034.10289849.0662288.39634975.2572737.80286231.501811 1.21953769.7285174v.0012737c.09908744-.1477413.32393974-.3948259.22866334-.5463881-.4535156-.7259701.3188583-1.0927761.6288241-1.2214129.6199317-.256 1.722597-1.9422886 2.0617809-2.608398.321399-.6329951.0914653-1.6162388 1.0886915-1.8556816 2.2612261-.5425672.7393447-2.5345274 2.0668623-3.9011344.4077829-.4190248.6008764-1.1564577-.0038111-1.4774129-.5653065-.3018507-1.1306131-.8839005-1.9309347-.6253532-.1867417.0598607-.3353728-.0101891-.4242974-.1999602-.2121488-.453413-.523385-.4725174-.9095719-.183403-.2858292.2114229-.5564141.0980696-.801592-.086607-.1892824-.1413731-.166416-.3107661-.1105206-.5285572.227393-.8775323-.2121487-1.5156219-1.1407758-1.7079403-1.40246839-.290388-2.57881412-1.2698109-3.01200407-1.3334925-.16895678-.0267463-3.31180703-.806209-3.47695276-.7909254-.33791357-1.0431045-1.63748342-1.4723184-2.00461508-2.3205572.84351357-.5349254 2.44796784-1.9473831 2.50005226-3.0503483.068599-1.4774129 1.85344322-2.2339502 3.21144925-2.8835025.83462111-.3986467 1.46090452-1.3615124 2.6296281-.93611936.0952764.03438806.3188583-.14009951.4154051-.26491543.1181427-.15283582-.1295759-.22288557-.1626051-.33369154-.1854713-.61516418-.7850773-.2521791-1.26145926-.45978109.94260096-.743801 1.97412666-.67375125 3.22161206-.99088557.2185005-.05603981.6389869-.25472637.2693146-.49416916-.4827337-.31458706-.454786-.76927363-.5691176-1.17938308-.3391839-1.23032836-.8371618.38718408-1.426605-.39100498-.5348181-.70686567-1.3465729-.78455721-1.73530054-.03693532-.39634975.76163184-1.21191558 1.18702487-1.47487839 2.00342288-.18801206.58332339-.91846432.29802985-.78634774-.09806965.34553568-1.03928358-1.1191799-1.03546268-1.49266331-1.81492537-.00254071.00254726-.00508141.00509453-.00762212.00764179"/></g><path d="m20.3695823 11.1990448c0 4.7302686-3.8250291 8.5651741-8.5431156 8.5651741-4.71681605 0-8.54057484-3.8349055-8.54057484-8.5651741 0-4.73026868 3.82375879-8.56390052 8.54057484-8.56390052 4.7180865 0 8.5431156 3.83363184 8.5431156 8.56390052" fill="#fff" fill-opacity=".2"/><path d="m6.40625688 22.8992637c-.09781708-.7068657-1.94490854-2.158806-1.94490854-2.158806.00508141.0152836.00889246.0305672.01397387.0458508.61230955 1.7359602-1.38849447.9972537-.52973668 3.8565572.39634975 1.3207562 1.0480402 2.4861293 2.47337487 3.0630845.33537287.1362787.57801005.4088359.61866131.7756418.11306131 1.0316418.41667538 2.0339901.24644824 3.1076617-.1448201.9055523-.1422794 1.816199.17657889 2.6720796.14354975.110806.29726232.2101493.44462312.3158607 0 0 1.16872362-2.864398.98452261-4.2322786-.18293065-1.3691542-.16768643-3.1993632-1.3745206-4.2348258-1.20683417-1.0354627-1.0112-2.5026866-1.10901709-3.2108259" fill="#fff07d"/><path d="m30.4133644 3.76498308c2.3577729 3.18025871 3.7551598 7.11960202 3.7551598 11.38626862 0 10.5520398-8.5316824 19.1044777-19.0552764 19.1044777-4.2569487 0-8.18614669-1.3997214-11.35821504-3.7648558 3.47314171 4.6831443 9.03220104 7.718209 15.30011654 7.718209 10.523594 0 19.0552764-8.5537115 19.0552764-19.1044776 0-6.2840995-3.0272482-11.85878609-7.6970613-15.33962192" fill="#1c64b8" fill-opacity=".2"/><path d="m38.1105528 19.1044776c0 10.5507662-8.5316824 19.1044776-19.0552764 19.1044776-10.52359399 0-19.0552764-8.5537114-19.0552764-19.1044776 0-10.55076616 8.53168241-19.1044776 19.0552764-19.1044776 10.523594 0 19.0552764 8.55371144 19.0552764 19.1044776z" stroke="#6d6da8" stroke-linecap="round" stroke-linejoin="round" stroke-width="2"/></g><path d="m77.2814681 102.471833c-23.3541467 0-44.3251135 10.200517-58.7486874 26.389652 1.5193407.72597 3.1441206 1.300378 4.7955779 1.748696 6.4368724 1.744876 11.8422191 5.946587 15.4601809 11.563304 5.9185688 9.185432 15.7930131 15.687323 27.4891417 16.871801 11.6415035 1.179383 22.567799-3.162428 30.194991-10.90611 5.3913728-5.472796 12.9575878-8.40597 20.6051058-7.790806 8.139143.655921 16.426918-1.33604 23.500237-5.900736-14.351164-19.398687-37.355964-31.975801-63.2965469-31.975801" fill="#ecf4ff"/><path d="m121.743145 116.2617c4.594862 6.722228 8.169632 14.197174 10.527405 22.198129 2.888779-.980697 5.678472-2.316736 8.303019-4.009393-5.224957-7.057194-11.589419-13.215204-18.830424-18.188736" fill="#2c4b75" fill-opacity=".2"/><path d="m87.5546758 153.970627c0-20.856995-16.86519-37.765731-37.6684704-37.765731-11.6554774 0-22.0710914 5.309771-28.9805346 13.643144.7952402.285293 1.6057246.54002 2.4225608.761632 6.4368723 1.744875 11.8422191 5.946587 15.4601809 11.563303 5.9185688 9.185433 15.793013 15.688597 27.4891417 16.871801 7.6398954.774368 14.9634733-.841871 21.2555256-4.223363.0063518-.28402.021596-.564219.021596-.850786" fill="#fff"/><path d="m140.578142 134.448271c-14.351164-19.398687-37.355964-31.975801-63.2965468-31.975801-23.3541468 0-44.3251136 10.199243-58.7486875 26.388378" stroke="#6d6daa" stroke-linecap="round" stroke-linejoin="round" stroke-width="2"/><path d="m65.1820028 128.312677c-5.8055075 1.516895-11.2794533-.203781-12.2258653-3.843821-.9464121-3.638766 2.9929487-7.8201 8.7997266-9.336995 5.8055076-1.516896 11.2794533.203781 12.2258653 3.843821.9464121 3.638766-2.994219 7.820099-8.7997266 9.336995" fill="#ced8ee"/><path d="m63.0259618 118.953138c4.5694553-1.193393 8.9204101-.376995 11.0342754 1.795821.0863839-.597333.07241-1.190846-.0787618-1.772895-.9464121-3.64004-6.4203578-5.360717-12.2258653-3.843821-5.8055076 1.515622-9.7448684 5.698229-8.7997267 9.336995.2019859.775642.6199317 1.458308 1.19159 2.045453.4535155-3.131861 4.001608-6.287921 8.8784884-7.561553" fill="#768ea6" fill-opacity=".3"/><path d="m76.6151686 124.491781c-1.4926633-1.202308-2.3272844-3.083463-2.6321688-5.511005.9400603 3.637493-2.9980302 7.815005-8.800997 9.331901-5.8055075 1.516895-11.2794533-.203781-12.2258653-3.843821-.295992 2.362587-.7533186 3.641313-1.4926633 4.997731 2.9357829 2.798169 8.710802 3.818348 14.7652985 2.236498 4.9086392-1.283821 8.8340261-3.969911 10.7827457-7.008796z" fill="#768ea6" opacity=".3"/><path d="m52.9567727 124.469365c-.3048845 2.43009-.7787257 3.713911-1.5561809 5.117453" stroke="#6d6daa" stroke-linecap="round" stroke-linejoin="round" stroke-width="2"/><path d="m65.1820028 128.312677c-5.8055075 1.516895-11.2794533-.203781-12.2258653-3.843821-.9464121-3.638766 2.9929487-7.8201 8.7997266-9.336995 5.8055076-1.516896 11.2794533.203781 12.2258653 3.843821.9464121 3.638766-2.994219 7.820099-8.7997266 9.336995z" stroke="#6d6daa" stroke-linecap="round" stroke-linejoin="round" stroke-width="2"/><path d="m73.9814754 118.975554c.3048844 2.43009 1.1395055 4.313791 2.6334392 5.5161" stroke="#6d6daa" stroke-linecap="round" stroke-linejoin="round" stroke-width="2"/><path d="m105.757673 130.005461c-3.596366-.217791-6.400032-2.219941-6.2641044-4.475543.1359277-2.253054 3.1606354-3.903681 6.7557304-3.68589 3.595096.217791 6.398762 2.221214 6.262834 4.474269-.134657 2.254328-3.159364 3.904955-6.75446 3.687164" fill="#ced8ee"/><path d="m106.912042 125.177122c2.261226.136279 4.207405.981971 5.3088 2.149891.154983-.319682.270585-.6521.292181-1.008716.135927-2.253055-2.669009-4.256478-6.264105-4.474269-3.595095-.217791-6.6198028 1.432836-6.7557305 3.687164-.0495437.835503.3074252 1.635343.9565745 2.325652.832081-1.713035 3.433761-2.864398 6.46228-2.679722" fill="#768ea6" fill-opacity=".3"/><path d="m112.992072 129.959483c-.628824-.965413-.755859-2.194468-.478922-3.636219-.138469 2.251781-3.161906 3.89986-6.755731 3.682069-3.595095-.217791-6.4000321-2.221214-6.2641044-4.475542-.6072282 1.29401-1.1064764 1.938468-1.7797628 2.575284 1.1560201 2.144796 4.2633002 3.804338 8.0108382 4.031044 3.041222.184677 5.7801-.616437 7.455694-1.988139z" fill="#768ea6" fill-opacity=".3"/><path d="m99.4933146 125.5303c-.6250131 1.330946-1.1344241 1.975403-1.838199 2.63005" stroke="#6d6daa" stroke-linecap="round" stroke-linejoin="round" stroke-width="2"/><path d="m105.757673 130.005461c-3.596366-.217791-6.400032-2.219941-6.2641044-4.475543.1359277-2.253054 3.1606354-3.903681 6.7557304-3.68589 3.595096.217791 6.398762 2.221214 6.262834 4.474269-.134657 2.254328-3.159364 3.904955-6.75446 3.687164z" stroke="#6d6daa" stroke-linecap="round" stroke-linejoin="round" stroke-width="2"/><path d="m112.512642 126.318933c-.276937 1.444299-.149902 2.675901.478922 3.64004" stroke="#6d6daa" stroke-linecap="round" stroke-linejoin="round" stroke-width="2"/><path d="m34.7550456 132.823881c-1.1966713-.755264-1.4431196-2.521791-.5487919-3.945712.8930573-1.42392 2.5889769-1.966487 3.7856482-1.20995" stroke="#6d6daa" stroke-linecap="round" stroke-linejoin="round" stroke-width="2"/><path d="m67.9373958 148.923351c-.1168724-1.412457 1.7861146-2.724298 4.250597-2.929353 2.463212-.203781 4.5554814.775642 4.6723537 2.1881" stroke="#6d6daa" stroke-linecap="round" stroke-linejoin="round" stroke-width="2"/><path d="m56.95584 62.9892458v20.3781094 25.4726368h10.1628141v-25.4726368h5.081407v25.4726368h10.1628141v-25.4726368-18.7962587l-1.5142593-1.5181691 15.2708985 14.0366965c1.4875819 1.4914229 3.8999796 1.4914229 5.3888326 0 1.488852-1.4926965 1.488852-3.9113234 0-5.4040199l-10.7332025-10.7609154c-2.4009648-2.4071642-5.1665206-5.5772339-8.4122693-5.5772339h-25.4070352c-4.2086754 0-7.6221106 3.4222488-7.6221106 7.6417911v20.3781094c0 2.110408 1.7060825 3.8208955 3.8110553 3.8208955 2.1049729 0 3.8110553-1.7104875 3.8110553-3.8208955z" fill="#eef6ff"/><path d="m101.508601 71.6857313-10.7332024-10.7609154c-2.4009648-2.4071642-5.167791-5.5772338-8.4122694-5.5772338 0 2.8134527-25.4070351 2.8134527-25.4070351 0-4.2099458 0-7.6221106 3.4209751-7.6221106 7.641791v20.3781095c0 2.1104079 1.7060824 3.8208955 3.8110553 3.8208955s3.8110553-1.7104876 3.8110553-3.8208955v25.4726364h10.162814v-25.4726364h5.0814071v25.4726364h10.162814v-25.4726364-18.7962587l-1.5155296-1.5181692 15.2708985 14.0366965c1.4888523 1.4914229 3.9012499 1.4914229 5.3901029 0 1.487582-1.4926965 1.487582-3.9113233 0-5.4040199" fill="#eef6ff"/><path d="m67.1186541 108.839992h-10.1628141v-2.547264c0-2.813452 2.2752-5.094527 5.081407-5.094527 2.8062071 0 5.0814071 2.281075 5.0814071 5.094527z" fill="#ccd6ec"/><path d="m82.3628752 108.839992h-10.1628141v-2.547264c0-2.813452 2.2752-5.094527 5.081407-5.094527 2.8062071 0 5.0814071 2.281075 5.0814071 5.094527z" fill="#ccd6ec"/><path d="m56.9562211 108.839483h10.1628141v-3.820896h-10.1628141z" fill="#2c4b75" fill-opacity=".2"/><path d="m56.95584 79.5464597c0 2.110408-1.7060824 3.8208955-3.8110553 3.8208955-2.1049728 0-3.8110553-1.7104875-3.8110553-3.8208955v3.8208955c0 2.110408 1.7060825 3.8208955 3.8110553 3.8208955 2.1049729 0 3.8110553-1.7104875 3.8110553-3.8208955z" fill="#2c4b75" fill-opacity=".2" opacity=".3"/><path d="m72.2004422 108.839483h10.1628141v-3.820896h-10.1628141z" fill="#2c4b75" fill-opacity=".2"/><path d="m101.508601 73.2691104c-1.488853 1.4914229-3.9012506 1.4914229-5.3901029 0l-11.6313407-10.5851542c-.8168362-.743801-2.1240282-.1617512-2.1240282.9437612v.8176717l13.7553689 12.6446169c1.4888523 1.4914229 3.9012499 1.4914229 5.3901029 0 1.248755-1.2519801 1.435497-3.1509652.588172-4.6130946-.161334.2814727-.349346.5514826-.588172.792199" fill="#2c4b75" fill-opacity=".2"/><path d="m57.140041 59.5689075c2.1723015 2.279801 22.8663317 2.279801 25.0386332 0 .2909105-.3056717.7558593-.3846369 1.1699939-.304398 2.823992.5476616 5.2719598 3.3216318 7.4264764 5.4804378l10.7332025 10.762189c.240096.2407164.426838.5107264.589443.7909254.846054-1.4621294.659312-3.3598408-.589443-4.6118209l-10.7332025-10.7621891c-2.4009648-2.4058905-5.1665206-5.5759602-8.4122693-5.5759602 0 2.8134528-25.4070352 2.8134528-25.4070352 0-4.2086754 0-7.6221106 3.4209752-7.6221106 7.6417911v3.8208955c0-3.8794826 2.8836985-7.0852139 6.6198031-7.5768358.4242974-.0560398.8905165.0254726 1.1865085.3349652" fill="#fff"/><path d="m80.8481077 66.8735682 1.5142593 1.5181691v-.1248159z" fill="#fff"/><path d="m49.3337294 79.5464597h7.6221106" stroke="#6d6daa" stroke-linecap="round" stroke-linejoin="round" stroke-width="2"/><path d="m56.95584 92.2827781h10.1628141" stroke="#6d6daa" stroke-linecap="round" stroke-linejoin="round" stroke-width="2"/><path d="m72.2000611 92.2827781h10.1628141" stroke="#6d6daa" stroke-linecap="round" stroke-linejoin="round" stroke-width="2"/><path d="m56.95584 75.7255642h25.4070352" stroke="#6d6daa" stroke-linecap="round" stroke-linejoin="round" stroke-width="2"/><path d="m116.662373 42.6111363v-2.5472637h-19.0552767v20.3781095h19.0552767v2.5472637h13.973869v-20.3781095z" fill="#ff9797"/><path d="m116.662754 62.9887363h3.811055v-20.3781094h-3.811055z" fill="#750000" fill-opacity=".4" opacity=".309431"/><path d="m101.418533 60.4414726h5.081407v-20.3781094h-5.081407z" fill="#fff" fill-opacity=".5"/><path d="m116.662373 42.6111363v-2.5472637h-19.0552767v3.8208956h19.0552767v2.5472636h13.973869v-3.8208955z" fill="#fff" fill-opacity=".5"/><path d="m74.7407646 68.0837731h-10.162814c-1.4024684 0-2.5407036-1.1411741-2.5407036-2.5472636 0-1.4060896 1.1382352-2.5472637 2.5407036-2.5472637h10.162814c1.4024684 0 2.5407035 1.1411741 2.5407035 2.5472637 0 1.4060895-1.1382351 2.5472636-2.5407035 2.5472636" fill="#c5e7ff"/><path d="m97.6070963 37.516609v71.323383" stroke="#6d6daa" stroke-linecap="round" stroke-linejoin="round" stroke-width="2"/><path d="m100.1478 34.9693453c0-1.4060896-1.1382354-2.5472637-2.5407037-2.5472637-1.4024684 0-2.5407035 1.1411741-2.5407035 2.5472637 0 1.4060895 1.1382351 2.5472637 2.5407035 2.5472637 1.4024683 0 2.5407037-1.1411742 2.5407037-2.5472637" fill="#d4edff"/><g stroke="#6d6daa" stroke-linecap="round" stroke-linejoin="round" stroke-width="2"><path d="m56.95584 62.9892458v20.3781094 25.4726368h10.1628141v-25.4726368h5.081407v25.4726368h10.1628141v-25.4726368-18.7962587l-1.5142593-1.5181691 15.2708985 14.0366965c1.4875819 1.4914229 3.8999796 1.4914229 5.3888326 0 1.488852-1.4926965 1.488852-3.9113234 0-5.4040199l-10.7332025-10.7609154c-2.4009648-2.4071642-5.1665206-5.5772339-8.4122693-5.5772339h-25.4070352c-4.2086754 0-7.6221106 3.4222488-7.6221106 7.6417911v20.3781094c0 2.110408 1.7060825 3.8208955 3.8110553 3.8208955 2.1049729 0 3.8110553-1.7104875 3.8110553-3.8208955z"/><path d="m67.1186541 108.839992h-10.1628141v-2.547264c0-2.813452 2.2752-5.094527 5.081407-5.094527 2.8062071 0 5.0814071 2.281075 5.0814071 5.094527z"/><path d="m82.3628752 108.839992h-10.1628141v-2.547264c0-2.813452 2.2752-5.094527 5.081407-5.094527 2.8062071 0 5.0814071 2.281075 5.0814071 5.094527z"/><path d="m116.662373 42.6111363v-2.5472637h-19.0552767v20.3781095h19.0552767v2.5472637h13.973869v-20.3781095z"/><path d="m74.7407646 68.0837731h-10.162814c-1.4024684 0-2.5407036-1.1411741-2.5407036-2.5472636 0-1.4060896 1.1382352-2.5472637 2.5407036-2.5472637h10.162814c1.4024684 0 2.5407035 1.1411741 2.5407035 2.5472637 0 1.4060895-1.1382351 2.5472636-2.5407035 2.5472636z"/><path d="m100.1478 34.9693453c0-1.4060896-1.1382354-2.5472637-2.5407037-2.5472637-1.4024684 0-2.5407035 1.1411741-2.5407035 2.5472637 0 1.4060895 1.1382351 2.5472637 2.5407035 2.5472637 1.4024683 0 2.5407037-1.1411742 2.5407037-2.5472637z"/><path d="m116.662373 42.6111363v17.8308458"/><path d="m97.9152836 68.0837731-5.3901025 5.4027463"/></g><path d="m81.1526111 55.1658348v-11.2347064c0-6.3579702-5.1385729-11.5085374-11.4788985-11.5085374-6.3390553 0-11.4788985 5.1505672-11.4788985 11.5085374v11.2347064c0 2.2097513 5.1398432 4.0030249 11.4788985 4.0030249 6.3403256 0 11.4788985-1.7932736 11.4788985-4.0030249" fill="#eef6ff"/><path d="m81.0925234 44.1397493c0-3.6578707-5.1182472-6.6228856-11.4331658-6.6228856s-11.4331658 2.9650149-11.4331658 6.6228856v6.3681592c0 1.4060895 5.1182472 3.5661691 11.4331658 3.5661691s11.4331658-2.1600796 11.4331658-3.5661691z" fill="#c7bff3"/><path d="m69.6593576 37.0700736c-6.3149186 0-11.4331658 2.9115224-11.4331658 6.5044378v2.0301692c0-1.9499304 5.1182472-3.5305075 11.4331658-3.5305075s11.4331658 1.5805771 11.4331658 3.5305075v-2.0301692c0-3.5929154-5.1182472-6.5044378-11.4331658-6.5044378" fill="#554dab" fill-opacity=".3"/><path d="m81.0925234 43.8847682h1.2703518c.7012341 0 1.2703517.5693134 1.2703517 1.2736318v2.5472637c0 .7043184-.5691176 1.2736318-1.2703517 1.2736318h-1.2703518z" stroke="#6d6daa" stroke-linecap="round" stroke-linejoin="round" stroke-width="2"/><path d="m58.2261918 43.8847682h-1.2703518c-.7012342 0-1.2703518.5693134-1.2703518 1.2736318v2.5472637c0 .7043184.5691176 1.2736318 1.2703518 1.2736318h1.2703518z" stroke="#6d6daa" stroke-linecap="round" stroke-linejoin="round" stroke-width="2"/><path d="m58.4338943 43.2628537c-.0254071.1872239-.0444623.3769951-.0444623.5680398v6.7438806c0 1.4048159 4.6532985 3.5228657 10.5655155 3.7253732.4027015-2.8236418.6250131-4.6436617.6250131-7.8914229 0-3.1395025-.2159598-6.1261692-.5932543-8.8721194-5.2757708.1897711-9.588615 2.5867462-10.552812 5.7262487" fill="#fff" opacity=".5"/><path d="m73.2892607 54.3002746c1.0239035-3.6744278.968008-4.714985.968008-7.9296318 0-2.9968557-.2362854-5.7033234-.8968683-8.4760199-.5094111-.0942488-1.4494714-.2407164-1.9842894-.2903881.3582392 2.7625075.5653065 5.7084179.5653065 8.766408 0 3.2210149-.2185005 5.0537711-.6148503 7.9423681.5284664-.0076417 1.4545528.0229254 1.9626935-.0127363" fill="#fff" opacity=".5"/><path d="m81.1526111 55.1658348v-11.2347064c0-6.3579702-5.1385729-11.5085374-11.4788985-11.5085374-6.3390553 0-11.4788985 5.1505672-11.4788985 11.5085374v11.2347064c0 2.2097513 5.1398432 4.0030249 11.4788985 4.0030249 6.3403256 0 11.4788985-1.7932736 11.4788985-4.0030249z" stroke="#6d6daa" stroke-linecap="round" stroke-linejoin="round" stroke-width="2"/><path d="m81.0925234 44.1397493c0-3.6578707-5.1182472-6.6228856-11.4331658-6.6228856s-11.4331658 2.9650149-11.4331658 6.6228856v6.3681592c0 1.4060895 5.1182472 3.5661691 11.4331658 3.5661691s11.4331658-2.1600796 11.4331658-3.5661691z" stroke="#6d6daa" stroke-linecap="round" stroke-linejoin="round" stroke-width="2"/><path d="m28.5199051 139.308959c.5208442 1.566567 1.563803 2.613493 3.1263357 3.135682 1.563803.522189 1.563803 1.044378 0 1.566567-1.5625327.523463-2.6054915 1.567841-3.1263357 3.135682-.5208442 1.56784-1.0416884 1.56784-1.563803 0-.5208442-1.567841-1.5625327-2.612219-3.1263357-3.135682-1.563803-.522189-1.563803-1.044378 0-1.566567s2.6054915-1.569115 3.1263357-3.135682c.5221146-1.566567 1.0429588-1.566567 1.563803 0" fill="#c7bff3"/><path d="m26.1745817 83.562603c.6516905 1.9601194 1.9550714 3.265592 3.9088724 3.9189652 1.953801.6533731 1.953801 1.3080199 0 1.9601194-1.953801.6533731-3.2571819 1.9588457-3.9088724 3.9189651-.6516904 1.9588458-1.3021105 1.9588458-1.9550713 0-.6504201-1.9601194-1.9538011-3.265592-3.9076021-3.9189651-1.9550713-.6520995-1.9550713-1.3067463 0-1.9601194 1.953801-.6533732 3.257182-1.9588458 3.9076021-3.9189652.6529608-1.9588458 1.3033809-1.9588458 1.9550713 0" fill="#ff9595"/><path d="m124.194542 12.5489672c.781267 2.3485771 2.342529 3.9138706 4.685058 4.6971542 2.342528.7832836 2.342528 1.5665672 0 2.3485771-2.342529.78201-3.903791 2.3485771-4.685058 4.6984279-.781266 2.3473035-1.561262 2.3473035-2.342528 0-.781267-2.3498508-2.342529-3.9164179-4.686328-4.6984279-2.341258-.7820099-2.341258-1.5652935 0-2.3485771 2.343799-.7832836 3.905061-2.3485771 4.686328-4.6971542.781266-2.3498508 1.561262-2.3498508 2.342528 0" fill="#95bfff"/><path d="m133.959101 144.403487c.520844 1.566567 1.563803 2.613492 3.126336 3.135681 1.563803.522189 1.563803 1.044378 0 1.566567-1.562533.523463-2.605492 1.567841-3.126336 3.135682s-1.041688 1.567841-1.563803 0c-.520844-1.567841-1.562533-2.612219-3.126336-3.135682-1.563803-.522189-1.563803-1.044378 0-1.566567s2.605492-1.569114 3.126336-3.135681c.522115-1.566568 1.042959-1.566568 1.563803 0" fill="#ff9595"/><path d="m128.877694 88.3636856c.520844 1.5678408 1.563803 2.6134925 3.126336 3.1356816 1.563803.522189 1.563803 1.0443781 0 1.5665671-1.562533.5234627-2.605492 1.5691145-3.126336 3.1356816-.520844 1.5678408-1.041688 1.5678408-1.563803 0-.520844-1.5665671-1.562533-2.6122189-3.126336-3.1356816-1.563803-.522189-1.563803-1.0443781 0-1.5665671 1.563803-.5221891 2.605492-1.5678408 3.126336-3.1356816.522115-1.5665672 1.042959-1.5665672 1.563803 0" fill="#95bfff"/><path d="m68.9757813 16.7467303c.3912683 1.1755622 1.1725347 1.9588458 2.3450694 2.3511244 1.1725346.3922786 1.1725346.7832836 0 1.1768358-1.1725347.391005-1.9538011 1.1742886-2.3450694 2.3498508s-.7812663 1.1755622-1.1725347 0c-.3912683-1.1755622-1.1725346-1.9588458-2.3450693-2.3498508-1.1725347-.3935522-1.1725347-.7845572 0-1.1768358s1.953801-1.1755622 2.3450693-2.3511244c.3912684-1.1755621.7812664-1.1755621 1.1725347 0" fill="#c7bff3"/></g></svg>