<svg height="20" viewBox="0 0 64 20" width="64" xmlns="http://www.w3.org/2000/svg"><g fill="none" fill-rule="evenodd"><g fill="#fd6d6d" transform="translate(22 2.105263)"><path d="m23.9109 11.2612632c-1.2086667 0-2.1883333-1.0312281-2.1883333-2.30350881s.9796666-2.30350878 2.1883333-2.30350878 2.1883333 1.03122807 2.1883333 2.30350878-.9796666 2.30350881-2.1883333 2.30350881m4.0296667-6.9775439h-1.3003334c-.285 0-.4513333.20035088-.5446666.44-.034.08666666-.127.12631579-.2073334.08561403-.616-.31017544-1.293-.49824561-1.9773333-.49824561-2.598 0-4.6716667 2.36245614-4.3883333 5.15789474.2113333 2.08385964 1.7673333 3.78596494 3.7376666 4.08561404.8823334.134386 1.72-.0108772 2.4526667-.3582456.0006667-.0003509.0003333.0007017.001.0003509.18-.0905264.273-.0224562.284.1115789-.03 1.6659649-.8396667 2.4066667-2.2693333 2.4066667-.7856667 0-1.391-.3694737-1.7273334-.9431579-.063-.1073684-.1763333-.1705263-.296-.1705263h-1.7066666c-.1816667 0-.3206667.1796491-.2736667.3642105.3976667 1.5631579 1.899 2.885614 4.073 2.885614 3.209 0 4.475-2.245614 4.475-4.7105263v-8.50701754c0-.19298246-.1486667-.34982456-.3323333-.34982456"/><path d="m4.36346667 11.2612632c-1.20866667 0-2.18833334-1.0312281-2.18833334-2.30350881s.97966667-2.30350878 2.18833334-2.30350878c1.20866666 0 2.18833333 1.03122807 2.18833333 2.30350878s-.97966667 2.30350881-2.18833333 2.30350881m.65066666-6.90035092c-.93433333-.14245614-1.819.02807018-2.58166666.42140351-.07366667.03789474-.159-.01614035-.159-.10210526v-1.84666667-2.24105263c0-.19473684-.15-.35263158-.33533334-.35263158h-1.60166666c-.185 0-.335.15789474-.335.35263158v12.51438597c0 .1940351.14933333.3512281.33366666.3512281h1.415c.20033334 0 .37166667-.1273685.44633334-.3094737.02633333-.0635088.094-.0922807.15233333-.0603509.604.3284211 1.28766667.5157895 2.01466667.5157895 2.598 0 4.67166666-2.3621053 4.38833333-5.15719301-.21133333-2.08385965-1.767-3.78596491-3.73766667-4.08596491"/><path d="m41.4021333 5.97070175c-.591-1.61508771-2.2763333-2.19263157-3.804-1.88-.4176666.08561404-.8233333.23894737-1.1946666.45894737-.0283334.01649123-.0883334.06666667-.147.1077193-.059.02877193-.155.00105263-.1806667-.06140351-.075-.18210526-.246-.30947368-.4466667-.30947368h-.0063333c-.0066667-.00035088-.0123333-.00280702-.0193333-.00280702h-1.3873334c-.1853333 0-.3356666.15824561-.3356666.35368421v8.47859648c0 .1898246.146.3435088.3263333.3435088h1.654c.1803333 0 .3266667-.1536842.3266667-.3435088v-5.01649122c0-1.04070175.5893333-1.86210526 1.5953333-1.86210526 1.1103333 0 1.5786667.78491228 1.5786667 1.78912281v5.07754387c0 .1964912.151.3554386.3376666.3554386h1.6313334c.1863333 0 .3376666-.1589474.3376666-.3554386v-5.49719299c0-.55508772-.076-1.11649123-.266-1.63614036"/><path d="m31.9190333 4.28382456h-1.6383333c-.1846667 0-.3343333.15754386-.3343333.35192983v8.47052631c0 .194386.1496666.3519298.3343333.3519298h1.6383333c.1846667 0 .3343334-.1575438.3343334-.3519298v-8.47052631c0-.19438597-.1496667-.35192983-.3343334-.35192983"/><path d="m15.9842 7.83329825h-3.7643333c-.086 0-.1546667-.07719299-.1413334-.16280702.114-.73263158.9763334-1.42877193 2.0236667-1.42877193 1.047 0 1.9096667.69614035 2.0233333 1.42877193.0133334.08561403-.055.16280702-.1413333.16280702m-1.902-3.54456141c-2.605 0-4.54733333 2.39052632-4.38833333 5.04210527.13433333 2.24070179 1.87066663 4.05964909 4.01300003 4.24912279l.0003333.0049123c3.0763333.2350877 4.245-1.7294737 4.5746667-2.5582456.0686666-.1726316-.0536667-.3617544-.2336667-.3617544h-1.816c-.1063333 0-.206.0459649-.2853333.1203509-.935.8733333-2.216.6529824-2.381.62-.0033334-.0007018-.016-.0035088-.0166667-.0035088-.775-.1877193-1.401-.7768421-1.6663333-1.54421053-.03-.08701754.029-.17929824.1166666-.17929824h6.083c.2163334 0 .3916667-.18210527.3916667-.40631579v-.45508772c-.112-2.41649123-1.787-4.52807018-4.392-4.52807018"/><path d="m31.0998667.23975439c-.7233334 0-1.3183334.62596491-1.3183334 1.4045614 0 .7445614.595 1.37052632 1.3183334 1.37052632.7393333 0 1.3183333-.62596492 1.3183333-1.37052632 0-.77859649-.579-1.4045614-1.3183333-1.4045614"/></g><g><path d="m7.875437 3.67363737v-3.34533158c0-.19245789-.159375-.34778421-.341615-.32631053-1.63812.19335264-3.135735.87147369-4.36016 1.89532106-.14331.11989473-.150875.34733684-.02125.48333684l2.25488 2.36586316c.10744.11264736.274125.12311579.399415.03310526.53499-.38411053 1.147415-.65664737 1.80863-.78665263.149175-.0292579.2601-.1601579.2601-.31933158" fill="#ff9e00"/><path d="m4.555626 11.7440116c-.366095-.561179-.62611-1.2035105-.75004-1.89728949-.027965-.15648948-.15266-.27280527-.304385-.27280527h-3.18835c-.183345 0-.331415.16713684-.31093.35834211.18411 1.71887895.830535 3.29003685 1.806335 4.57478945.11424.1504948.33099.1583684.460615.0223684l2.255135-2.3663105c.10744-.1127368.117385-.2875684.03162-.4190947" fill="#fd7854"/><path d="m13.826355 1.89740579c-1.224255-1.02393684-2.721785-1.70205789-4.35999-1.89541053-.18224-.02147368-.341615.13385264-.341615.32631053v3.34542105c0 .15917369.110925.28998421.2601.31933158.66113.13000526 1.273555.40245263 1.80846.78656316.12529.09001053.291975.0795421.399415-.03310526l2.254965-2.36586316c.12954-.136.12206-.36335263-.021335-.48324737" fill="#ff9e00"/><path d="m8.280853 10.07573-5.128645 5.3813947c-.129455.1358211-.12189.3627264.02125.4825316 1.46149 1.2226579 3.31194 1.9550895 5.32661 1.9550895 2.014585 0 3.865035-.7324316 5.32661-1.955179.143225-.1198052.150875-.3467105.021335-.4825315l-5.12873-5.3813053c-.12104-.12705263-.317305-.12705263-.43843 0" fill="#fd6d6d"/><path d="m4.5236235 5.67365158-2.254965-2.36577369c-.129625-.136-.346375-.12803684-.46053.02236843-.975715 1.28457368-1.621885 2.85573157-1.806165 4.57443157-.02057.19120527.127585.35834211.31093.35834211h3.188435c.151725 0 .276505-.11631579.304385-.27280526.12393-.69377895.38352-1.3362.74953-1.89746842.085765-.13161579.075735-.30644737-.03162-.41909474" fill="#fe8d26"/><path d="m13.498799 8.26305579h3.18835c.183345 0 .331415-.16722632.31093-.35843158-.18411-1.71861053-.830535-3.28976842-1.806165-4.57425263-.11424-.15049474-.33099-.15836842-.46053-.0224579l-2.254965 2.36586316c-.10744.11264737-.117385.28747895-.03162.41900527.365925.56126842.62577 1.20368947.7497 1.89737894.02788.15648948.152575.27289474.3043.27289474" fill="#fe8d26"/><path d="m13.194499 9.84675789c-.12393.69377891-.383605 1.33637891-.7497 1.89764741-.085765.1315263-.07582.3063579.03162.4190947l2.25488 2.3658632c.129625.136.346375.1280368.460615-.0223685.975715-1.2846631 1.622055-2.8559105 1.806165-4.57469996.020485-.19120527-.127585-.35834211-.31093-.35834211h-3.18835c-.15164 0-.27642.11631579-.3043.27280526" fill="#fd7e5b"/></g></g></svg>