<svg viewBox="0 0 128 128" xmlns="http://www.w3.org/2000/svg" xmlns:xlink="http://www.w3.org/1999/xlink"><clipPath id="a"><path d="m13.20134 40.65928a27.78554 27.78554 0 0 0 -.11667 31.81551 18.23589 18.23589 0 0 1 3.18959 11.3637 34.27871 34.27871 0 0 0 53.02029 30.54578 18.89625 18.89625 0 0 1 15.79932-2.34148c14.25888 4.21427 31.35334-4.10393 34.08781-24.48725a15.37645 15.37645 0 0 0 -1.15038-7.3461 19.059 19.059 0 0 1 .17881-13.69473 26.38283 26.38283 0 0 0 -18.02166-35.09255 33.80078 33.80078 0 0 1 -17.66713-11.96849 26.85884 26.85884 0 0 0 -43.86287 2.79707 18.22589 18.22589 0 0 1 -10.585 7.75585 27.62966 27.62966 0 0 0 -14.87211 10.65269z"/></clipPath><path d="m13.20134 40.65928a27.78554 27.78554 0 0 0 -.11667 31.81551 18.23589 18.23589 0 0 1 3.18959 11.3637 34.27871 34.27871 0 0 0 53.02029 30.54578 18.89625 18.89625 0 0 1 15.79932-2.34148c14.25888 4.21427 31.35334-4.10393 34.08781-24.48725a15.37645 15.37645 0 0 0 -1.15038-7.3461 19.059 19.059 0 0 1 .17881-13.69473 26.38283 26.38283 0 0 0 -18.02166-35.09255 33.80078 33.80078 0 0 1 -17.66713-11.96849 26.85884 26.85884 0 0 0 -43.86287 2.79707 18.22589 18.22589 0 0 1 -10.585 7.75585 27.62966 27.62966 0 0 0 -14.87211 10.65269z" fill="#efedfc"/><g clip-path="url(#a)"><circle cx="63.74961" cy="139.77276" fill="#ff99b1" r="63.77269"/><path d="m5.0925 144.88824a63.76149 63.76149 0 0 1 106.22912-47.572 63.76315 63.76315 0 1 0 -90.02841 90.02841 63.52306 63.52306 0 0 1 -16.20071-42.45641z" fill="#fff" opacity=".5"/><path d="m104.26516 90.52355a63.77191 63.77191 0 0 1 -93.17829 85.21245 63.77191 63.77191 0 1 0 93.1783-85.21246z" fill="#750000" opacity=".15"/><g fill="#fedbc1" opacity=".5"><path d="m43.10824 119.13131c21.83484-21.83484 46.97576-33.20179 60.78214-28.57801-19.53231-13.629-51.19513-7.548-74.05162 15.30853s-28.93768 54.51949-15.30853 74.0518c-4.62386-13.80625 6.74308-38.94739 28.57801-60.78232z"/><ellipse cx="63.74961" cy="139.77276" rx="63.77269" ry="9.38293" transform="matrix(.70710678 -.70710678 .70710678 .70710678 -80.16244 86.01627)"/></g><path d="m84.64652 160.38558c-21.83484 21.83484-46.97579 33.20178-60.78214 28.578 19.53231 13.629 51.19513 7.548 74.05162-15.30853s28.93769-54.51949 15.30853-74.05181c4.62386 13.80627-6.74308 38.94741-28.57801 60.78234z" fill="#fedbc1" opacity=".4"/><path d="m63.75 204.5459a64.77295 64.77295 0 1 1 64.77246-64.77344 64.84728 64.84728 0 0 1 -64.77246 64.77344zm0-127.5459a62.77295 62.77295 0 1 0 62.77246 62.77246 62.84384 62.84384 0 0 0 -62.77246-62.77246z" fill="#6d6daa"/></g><path d="m54.931 72.93141c-.80364 6.89872.91346 13.92836 4.42777 18.12817l5.04759 6.03193 5.04764-6.03193c3.51432-4.19981 5.23141-11.22945 4.42777-18.12817l-1.88177-12.93141h-15z" fill="#ff9797"/><path d="m59.26746 70.291a28.66905 28.66905 0 0 0 -.71179 6.49456c0 7.49936 5.8507 13.57882 5.8507 13.57882s5.8507-6.07946 5.8507-13.57882a28.66905 28.66905 0 0 0 -.71179-6.49456l-1.54528-7.791h-7z" fill="#fff27d"/><path d="m61.72942 70.291a14.93419 14.93419 0 0 0 -.37078 3.38312c0 3.90654 3.04773 7.07343 3.04773 7.07343s3.04773-3.16689 3.04773-7.07343a14.93419 14.93419 0 0 0 -.3708-3.38312l-1.0833-5.50369h-3z" fill="#fff"/><path d="m52.41372 59.3437-.57012-10.34728c-4.84485 2.30622-8.057 6.35063-8.36581 10.91689l-.56861 8.408c-.09754 1.44262 2.42571 1.9723 3.24649.67641a26.46857 26.46857 0 0 1 7.16217-7.98237 2.31492 2.31492 0 0 1 -.90412-1.67165z" fill="#c9c1f5"/><path d="m45.52091 69.52642.47957-7.09046c.25616-3.78753 2.53-7.19953 6.056-9.57489l-.21289-3.86467c-4.8449 2.30623-8.05694 6.35063-8.3658 10.9169l-.56867 8.408c-.07891 1.16786 1.54934 1.718 2.61179 1.20512z" fill="#fff" opacity=".5"/><path d="m85.33493 59.91331c-.30877-4.56635-3.521-8.61051-8.366-10.91689l-.57 10.34728a2.31488 2.31488 0 0 1 -.90412 1.67151 26.46993 26.46993 0 0 1 7.16225 7.98262c.82079 1.29572 3.344.76622 3.24649-.67641z" fill="#c9c1f5"/><path d="m76.9689 48.9964-.2239 4.06622c3.62981 2.37916 5.97269 5.846 6.23315 9.698l.46263 6.83959c1.05932.39263 2.53806-.166 2.46287-1.27883l-.56872-8.40809c-.30878-4.56636-3.52093-8.61051-8.36603-10.91689z" fill="#fff" opacity=".5"/><path d="m62.01745 54.65128-.00015-.00005c-5.61081-.44415-10.1033-2.25723-10.1033-4.42933l-.00287-.00164.50261 9.12344c-.00005 2.1579 4.26494 3.96039 9.60368 4.41917z" fill="#9eb2cc"/><path d="m66.79526 63.76287c5.33858-.45894 9.60363-2.26127 9.60373-4.41922l.50251-9.12344-.00293.00169c-.00005 2.17207-4.49241 3.98513-10.10326 4.42933z" fill="#9eb2cc"/><path d="m66.79526 63.76287c5.33858-.45894 9.60363-2.26127 9.60373-4.41922l.50251-9.12344-.00293.00169c-.00005 2.17207-4.49241 3.98513-10.10326 4.42933z" fill="#9eb2cc"/><path d="m64.40641 6.4297a38.19508 38.19508 0 0 0 -12.68641 24.0133 50.04106 50.04106 0 0 0 -.37677 9.46885l.5679 10.3084.00287.00164c-.00005 2.17207 4.49246 3.98518 10.10326 4.42933l.00015.00005v-4.02727a2.38891 2.38891 0 0 1 4.77782 0l.00005 4.02721c5.61089-.44421 10.10325-2.25721 10.1033-4.42931l.00293-.00169.5679-10.3083a50.03573 50.03573 0 0 0 -.37672-9.4688 38.19544 38.19544 0 0 0 -12.68628-24.01341z" fill="#eef6ff"/><path d="m64.40636 18.52429c3.408.00008 6.38636-.89453 8.014-2.225a35.72382 35.72382 0 0 0 -8.014-9.86964 35.72477 35.72477 0 0 0 -8.01407 9.86974c1.62762 1.33045 4.60596 2.2249 8.01407 2.2249z" fill="#c9c1f5"/><path d="m64.29735 7.50776q.05343-.55368.109-1.07805l-.00935.00829q-.35883.51988-.703 1.06974c-.10788.172-.21125.35259-.317.52884-.11948.19924-.24045.39535-.35706.59982-.142.24866-.27884.5061-.41665.76226-.0736.13714-.149.27089-.22136.41013-.15962.3063-.3139.62091-.46751.93722-.0447.09233-.09084.1824-.135.27561-.16932.35572-.33324.7194-.49491 1.08709-.02428.05538-.04922.10958-.07344.16521q-.2589.59594-.50348 1.21247l-.03264.08119q-.25682.6476-.49794 1.31625l-.00708.0195q-.24682.68363-.47716 1.38764l-.00031.001c-.15541.47464-.28377.9789-.42778 1.46606a16.39065 16.39065 0 0 0 4.31806.73927c.032-.74224.06308-1.49152.099-2.20481v-.00149q.03557-.70411.07344-1.38764l.00108-.01955q.03726-.66823.07663-1.31619l.005-.08119q.03772-.61558.07745-1.21252l.01129-.16516c.02484-.36768.05009-.73136.07616-1.08714.00672-.09315.01386-.18323.02079-.27556.02356-.31631.04737-.63092.0719-.93722.01114-.13924.02274-.273.034-.41013.0212-.25616.04224-.5136.0641-.76221.01791-.20452.03654-.40063.05492-.59987.01642-.17627.03227-.35687.04885-.52886z" fill="#fff" opacity=".5"/><path d="m64.40631 6.42971.00072-.007-.01003.01529z" fill="#fff" opacity=".75"/><path d="m59.26471 17.75807a62.365 62.365 0 0 0 -2.32116 12.67807 84.83636 84.83636 0 0 0 -.22167 9.46885l.33417 10.3084.1182 3.64731a27.9641 27.9641 0 0 0 4.84305.79054l.00015.00005 1.25871-4.4379-.05137-10.30839c-.01576-3.16251-.00436-6.33688.03408-9.4689.05189-4.228.16465-8.24442.3239-11.93875a16.39065 16.39065 0 0 1 -4.31806-.73928z" fill="#fff" opacity=".75"/><path d="m62.01745 54.65129-.00015-.00005a27.9641 27.9641 0 0 1 -4.84305-.79054l.17743 5.47608c.00005 1.92592 2.00311 3.5616 4.66578 4.21875z" fill="#fff" opacity=".5"/><path d="m77.09343 30.43625a40.00543 40.00543 0 0 0 -5.48492-15.53434l-.01-.01619q-.41133-.66957-.848-1.31883c-.01793-.02664-.03636-.05277-.05429-.07933q-.41764-.61644-.857-1.21394c-.04065-.05516-.08289-.10909-.1239-.16411-.27494-.36792-.554-.73192-.842-1.088-.075-.093-.153-.18284-.22885-.275-.2613-.31653-.5239-.63147-.79529-.93791-.12172-.13776-.24852-.27-.37228-.40574-.23575-.258-.47019-.51722-.7132-.76763-.19321-.19938-.39391-.39057-.59177-.58494-.18465-.18117-.36538-.36676-.55388-.54357q-.59293-.55667-1.211-1.08395l-.00007.00007q.364.52641.71247 1.08388c.11091.17681.21724.3624.3259.54357.11635.19438.23444.38556.34811.58494.143.25041.28089.50967.4196.76763.0728.13573.14742.268.219.40574.15968.30644.31414.62138.46787.93791.04464.09218.09058.182.13471.275.16934.35609.33352.72009.4953 1.088.0241.055.04892.10895.07287.16411q.25923.59674.50416 1.21394l.03194.07933q.25727.649.49886 1.31883l.006.01619a60.2877 60.2877 0 0 1 3.22688 15.53434 84.8078 84.8078 0 0 1 .22159 9.46876l-.3341 10.30832-.29563 9.12341c-.00007 2.158-2.50925 3.96032-5.65 4.41926h.98349c5.33852-.45894 9.60362-2.26131 9.60369-4.41926l.50249-9.12341.56795-10.30833a50.03253 50.03253 0 0 0 -.3767-9.46875z" fill="#2c4b75" opacity=".2"/><circle cx="64.40628" cy="31.50245" fill="#96d7ff" r="4.75677" transform="matrix(.70710678 -.70710678 .70710678 .70710678 -3.41144 54.76897)"/><path d="m63.56537 30.6616a4.75267 4.75267 0 0 1 5.21633-1.0119 4.75679 4.75679 0 1 0 -6.22823 6.22823 4.7529 4.7529 0 0 1 1.0119-5.21633z" fill="#2c4b75" opacity=".2"/><path d="m61.04271 28.13894a4.73757 4.73757 0 0 0 3.79872 8.07849v-9.4301a4.72585 4.72585 0 0 0 -3.79872 1.35161z" fill="#fff" opacity=".5"/><g fill="#6d6daa"><path d="m64.40625 98.0918a.99735.99735 0 0 1 -.7666-.3584l-5.04785-6.03223c-3.71191-4.43652-5.49512-11.67285-4.6543-18.88477a.98916.98916 0 0 1 1.10938-.87793.99964.99964 0 0 1 .877 1.10938c-.7666 6.584.88184 13.40234 4.20117 17.37012l4.28125 5.11523 4.2812-5.1152c3.31934-3.9668 4.96875-10.78516 4.20117-17.37012a.99964.99964 0 0 1 .877-1.10937.987.987 0 0 1 1.10938.87793c.84082 7.21289-.94238 14.4502-4.6543 18.88477l-5.0479 6.03219a.99735.99735 0 0 1 -.7666.3584z"/><path d="m44.667 70.73535a3.33433 3.33433 0 0 1 -1.02441-.16113 2.30572 2.30572 0 0 1 -1.73145-2.32031l.56836-8.4082c.3291-4.85254 3.66895-9.24609 8.93457-11.75293a.99917.99917 0 0 1 1.42773.84863l.57031 10.34766c.001.01758.002.03613.002.05469a1.47836 1.47836 0 0 0 .57324.92871 1.00106 1.00106 0 0 1 -.11523 1.5752 25.16312 25.16312 0 0 0 -6.87212 7.68553 2.67765 2.67765 0 0 1 -2.333 1.20215zm6.26465-20.125c-3.82422 2.24512-6.20508 5.666-6.45605 9.37012l-.56836 8.4082c-.00879.12988.22949.24316.35645.28516a.962.962 0 0 0 1.04688-.21094 29.01478 29.01478 0 0 1 6.5459-7.62988 2.79866 2.79866 0 0 1 -.44238-1.458z"/><path d="m84.14551 70.73535a2.67765 2.67765 0 0 1 -2.333-1.20215 25.16473 25.16473 0 0 0 -6.87207-7.68555 1.00106 1.00106 0 0 1 -.11523-1.5752 1.48318 1.48318 0 0 0 .57422-.93066l.57129-10.40039a.99917.99917 0 0 1 1.42773-.84863c5.2666 2.50684 8.60645 6.90039 8.93457 11.75293l.56836 8.4082a2.30572 2.30572 0 0 1 -1.73145 2.32031 3.33433 3.33433 0 0 1 -1.02442.16114zm-7.18751-9.90135a29.00771 29.00771 0 0 1 6.544 7.62889.96372.96372 0 0 0 1.04688.21094c.127-.042.36523-.15527.35645-.28516l-.56836-8.4082c-.25-3.7041-2.63184-7.125-6.45508-9.37012l-.48437 8.78809a2.68905 2.68905 0 0 1 -.43952 1.43556z"/><path d="m62.01855 64.7627c-.02832 0-.05762-.001-.08691-.00391-5.23535-.4502-10.51758-2.29883-10.51758-5.415l-.501-9.06836a1.00118 1.00118 0 1 1 2.001-.05371c0 1.10547 3.26953 2.96484 9.18262 3.43262a1.0002 1.0002 0 1 1 -.1582 1.99414c-3.3623-.2666-6.74219-1.0625-8.85645-2.36328l.33008 6.00391c.002 1.14844 3.09668 2.99609 8.69141 3.47754a.9999.9999 0 0 1 -.085 1.99609z"/><path d="m66.79395 64.7627a.9999.9999 0 0 1 -.085-1.99609c5.59473-.48145 8.68945-2.3291 8.69043-3.42285l.332-6.05859c-2.11426 1.30078-5.49512 2.09668-8.85742 2.36328a1.0002 1.0002 0 1 1 -.1582-1.99414c5.91309-.46777 9.18262-2.32715 9.18262-3.43262a1.00117 1.00117 0 1 1 2.001.05273l-.502 9.124c.001 3.06152-5.28223 4.91016-10.5166 5.36035-.02922.00295-.05851.00393-.08683.00393z"/><path d="m66.79395 55.65137a1.0001 1.0001 0 0 1 -.07812-1.99707c5.91309-.46777 9.18262-2.32715 9.18262-3.43262a.95661.95661 0 0 1 .00879-.12988l.56445-10.23437a49.09084 49.09084 0 0 0 -.37012-9.2793 37.12091 37.12091 0 0 0 -11.69532-22.82032 37.12091 37.12091 0 0 0 -11.69531 22.82032 49.29312 49.29312 0 0 0 -.37012 9.2793l.56445 10.23438a.95661.95661 0 0 1 .00879.12988c0 1.10547 3.26953 2.96484 9.18262 3.43262a1.0002 1.0002 0 1 1 -.1582 1.99414c-5.43164-.43066-10.91211-2.24414-11.02246-5.332a.28967.28967 0 0 1 -.00293-.041l-.56836-10.30865a51.24748 51.24748 0 0 1 .38379-9.65723 38.98076 38.98076 0 0 1 13.02929-24.64157.99988.99988 0 0 1 1.29688 0 38.98081 38.98081 0 0 1 13.02931 24.64059 51.14375 51.14375 0 0 1 .38379 9.6582l-.56836 10.30762a.28967.28967 0 0 1 -.00293.041c-.1084 3.08887-5.58984 4.90234-11.02246 5.333-.02736.00198-.05373.00296-.08009.00296z"/><path d="m64.40625 19.52441c-3.53711 0-6.76953-.916-8.64648-2.4502a1.00046 1.00046 0 0 1 -.24121-1.26074 36.60765 36.60765 0 0 1 8.23925-10.14547.99988.99988 0 0 1 1.29688 0 36.589 36.589 0 0 1 8.23926 10.1445 1.00046 1.00046 0 0 1 -.24121 1.26074c-1.87598 1.53516-5.1084 2.45117-8.64649 2.45117zm-6.69238-3.52051a13.715 13.715 0 0 0 6.69238 1.52051 13.70374 13.70374 0 0 0 6.69238-1.52148 34.58034 34.58034 0 0 0 -6.69238-8.24512 34.53828 34.53828 0 0 0 -6.69238 8.2461z"/><path d="m64.40625 37.25684a5.7544 5.7544 0 1 1 4.07031-1.68359 5.73974 5.73974 0 0 1 -4.07031 1.68359zm0-9.50977a3.75537 3.75537 0 1 0 2.65625 1.09863 3.74482 3.74482 0 0 0 -2.65625-1.09863z"/></g><path d="m64.5 47.72615a3.5 3.5 0 0 0 -3.5 3.5v15.45825a3.5 3.5 0 0 0 3.5 3.5 3.5 3.5 0 0 0 3.5-3.5v-15.45826a3.5 3.5 0 0 0 -3.5-3.49999z" fill="#c9c1f5"/><path d="m64.49991 47.72621a3.49964 3.49964 0 0 0 -3.49984 3.49979l-.00007 4.61736a3.5 3.5 0 1 1 7 0l-.00007-4.61717a3.4999 3.4999 0 0 0 -3.50002-3.49998z" fill="#fff" opacity=".5"/><path d="m64.5 71.18457a4.50492 4.50492 0 0 1 -4.5-4.5v-15.458a4.5 4.5 0 0 1 9 0v15.458a4.50492 4.50492 0 0 1 -4.5 4.5zm0-22.458a2.50232 2.50232 0 0 0 -2.5 2.5v15.458a2.5 2.5 0 0 0 5 0v-15.458a2.50232 2.50232 0 0 0 -2.5-2.50001z" fill="#6d6daa"/><path d="m11.59615 79.6859a4.85463 4.85463 0 0 0 3.23076 3.23079q2.42309.80768 0 1.61536a4.85463 4.85463 0 0 0 -3.23076 3.23079q-.80768 2.423-1.61539 0a4.85457 4.85457 0 0 0 -3.23076-3.23084q-2.42309-.80768 0-1.61536a4.85457 4.85457 0 0 0 3.23076-3.23074q.80773-2.42305 1.61539 0z" fill="#97c1ff"/><path d="m22.02054 16.6665a3.74519 3.74519 0 0 0 2.49246 2.4925q1.86934.6231 0 1.2462a3.74519 3.74519 0 0 0 -2.49243 2.49245q-.6231 1.8693-1.24623 0a3.74515 3.74515 0 0 0 -2.49243-2.49245q-1.86934-.6231 0-1.2462a3.74515 3.74515 0 0 0 2.49243-2.49245q.62311-1.86935 1.2462-.00005z" fill="#c9c1f5"/><path d="m118.3718 60.641a4.62346 4.62346 0 0 0 3.07691 3.07694q2.30771.76922 0 1.53844a4.62346 4.62346 0 0 0 -3.07691 3.07694q-.76922 2.30766-1.53847 0a4.6234 4.6234 0 0 0 -3.07691-3.07694q-2.30771-.76922 0-1.53844a4.6234 4.6234 0 0 0 3.07691-3.07694q.76927-2.30767 1.53847 0z" fill="#96d7ff"/><path d="m96.78205 38.33973a3.69876 3.69876 0 0 0 2.46153 2.46155q1.84616.61538 0 1.23075a3.69876 3.69876 0 0 0 -2.46153 2.46155q-.61538 1.84613-1.23078 0a3.69872 3.69872 0 0 0 -2.46152-2.46158q-1.84616-.61538 0-1.23075a3.69872 3.69872 0 0 0 2.46153-2.46155q.61541-1.8461 1.23077.00003z" fill="#ff99b1"/><path d="m111.84616 115.34614a3.23642 3.23642 0 0 0 2.15384 2.15386q1.61539.53845 0 1.07691a3.23642 3.23642 0 0 0 -2.15384 2.15386q-.53845 1.61536-1.07693 0a3.23638 3.23638 0 0 0 -2.15384-2.15386q-1.61539-.53845 0-1.07691a3.23638 3.23638 0 0 0 2.15384-2.15386q.53849-1.61536 1.07693 0z" fill="#ff99b1"/><g opacity=".3"><circle cx="109" cy="20" fill="#c9c1f5" r="6"/><path d="m109 17.6a5.98 5.98 0 0 1 5.70681 4.239 5.926 5.926 0 0 0 .29319-1.839 6 6 0 0 0 -12 0 5.926 5.926 0 0 0 .29319 1.839 5.98 5.98 0 0 1 5.70681-4.239z" fill="#fff" opacity=".5"/><path d="m109 27a7 7 0 1 1 7-7 7.00849 7.00849 0 0 1 -7 7zm0-12a5 5 0 1 0 5 5 5.00589 5.00589 0 0 0 -5-5z" fill="#6d6daa"/><circle cx="28.5" cy="51.9" fill="#ff99b1" r="3.5"/><path d="m28.5 50.5a3.48832 3.48832 0 0 1 3.329 2.47277 3.45684 3.45684 0 0 0 .171-1.07277 3.5 3.5 0 0 0 -7 0 3.45684 3.45684 0 0 0 .171 1.07277 3.48832 3.48832 0 0 1 3.329-2.47277z" fill="#fff" opacity=".5"/><path d="m28.5 56.40039a4.5 4.5 0 1 1 4.5-4.5 4.50492 4.50492 0 0 1 -4.5 4.5zm0-7a2.5 2.5 0 1 0 2.5 2.5 2.50232 2.50232 0 0 0 -2.5-2.5z" fill="#6d6daa"/></g></svg>